<?xml version="1.0" standalone="no"?>
<!DOCTYPE svg PUBLIC "-//W3C//DTD SVG 20010904//EN"
 "http://www.w3.org/TR/2001/REC-SVG-20010904/DTD/svg10.dtd">
<svg version="1.0" xmlns="http://www.w3.org/2000/svg"
 width="748.000000pt" height="421.000000pt" viewBox="0 0 748.000000 421.000000"
 preserveAspectRatio="xMidYMid meet">
<metadata>
Created by potrace 1.16, written by Peter Selinger 2001-2019
</metadata>
<g transform="translate(0.000000,421.000000) scale(0.100000,-0.100000)"
fill="#000000" stroke="none">
<path d="M2665 4144 c-445 -65 -821 -339 -1033 -751 -206 -402 -211 -893 -12
-1295 67 -136 140 -237 250 -349 195 -198 394 -311 641 -365 102 -22 344 -30
466 -14 134 16 300 60 412 109 249 108 433 294 625 633 58 103 133 257 255
525 l33 71 92 -60 c152 -100 347 -190 473 -218 154 -35 356 -29 482 14 190 66
304 166 395 348 71 143 87 203 93 353 8 198 -36 364 -138 521 -190 290 -520
415 -849 321 -166 -48 -314 -122 -437 -219 -67 -53 -243 -234 -243 -250 0 -6
-43 30 -95 80 -177 170 -339 284 -540 383 -236 115 -414 159 -670 164 -93 2
-183 1 -200 -1z m285 -169 c176 -24 322 -71 500 -161 153 -77 166 -94 20 -24
-287 136 -562 190 -820 161 -429 -50 -743 -274 -906 -649 -44 -101 -44 -75 0
31 122 295 340 498 632 590 201 64 376 79 574 52z m2105 -40 c-244 -30 -420
-114 -602 -287 l-87 -83 47 61 c80 106 206 207 323 260 104 46 189 63 309 62
l110 0 -100 -13z m-2105 -365 c236 -29 461 -144 788 -407 78 -63 142 -119 142
-124 0 -32 -144 -289 -268 -479 -203 -308 -423 -468 -693 -501 -308 -37 -637
153 -768 443 -51 112 -65 180 -65 323 -1 151 14 217 75 341 89 181 239 312
429 373 119 38 224 47 360 31z m2210 -64 c55 -36 108 -96 137 -154 23 -47 25
-61 21 -145 -3 -78 -8 -100 -33 -145 -30 -55 -72 -94 -128 -117 -55 -23 -173
-29 -252 -12 -38 8 -72 13 -74 12 -1 -2 37 -16 85 -31 72 -22 109 -28 189 -28
121 -1 182 22 246 91 95 104 105 210 33 388 -7 17 -6 18 8 7 8 -7 28 -40 44
-75 23 -50 29 -76 28 -132 0 -95 -29 -159 -104 -228 -97 -90 -205 -108 -383
-63 -88 22 -282 109 -340 152 -29 21 -16 16 70 -29 94 -48 108 -48 20 1 -74
40 -197 129 -197 141 0 22 95 146 166 216 159 158 354 221 464 151z m-1292
-873 c-205 -369 -498 -583 -817 -598 l-76 -4 64 9 c130 18 296 85 411 163 129
89 281 247 387 404 31 46 58 83 60 83 2 0 -11 -26 -29 -57z"/>
<path d="M2721 3488 c-191 -27 -376 -157 -465 -328 -47 -89 -46 -108 2 -34 52
80 130 147 227 194 104 51 177 70 300 77 121 6 246 -8 394 -45 61 -15 111 -25
111 -22 0 3 -35 27 -77 53 -90 54 -190 90 -291 106 -80 12 -110 12 -201 -1z"/>
<path d="M3672 2927 c-138 -266 -261 -448 -369 -548 -72 -65 -172 -130 -238
-154 -59 -22 -84 -40 -40 -29 183 43 360 158 466 300 92 125 247 373 310 497
20 37 20 39 2 53 -51 40 -46 44 -131 -119z"/>
<path d="M4642 3995 c-191 -65 -382 -172 -507 -287 l-57 -52 32 -28 33 -27 93
88 c138 132 287 226 524 329 59 25 -19 10 -118 -23z"/>
<path d="M5678 2596 c-56 -78 -130 -138 -223 -182 -102 -48 -175 -65 -311 -71
-136 -6 -241 5 -382 43 -52 13 -99 24 -105 24 -21 -1 113 -81 185 -112 302
-128 643 -35 819 224 39 58 74 127 67 134 -2 2 -25 -25 -50 -60z"/>
<path d="M590 561 c-73 -23 -138 -81 -168 -150 -23 -55 -19 -156 8 -219 40
-94 116 -142 222 -142 51 0 73 6 114 30 50 28 94 81 94 113 0 10 -17 19 -50
27 l-50 12 -40 -36 c-29 -26 -49 -36 -74 -36 -84 0 -144 117 -108 210 13 32
60 76 91 83 28 7 80 -12 100 -36 9 -12 29 -17 67 -17 l54 0 0 60 0 60 -32 0
c-18 0 -55 11 -82 25 -49 25 -98 30 -146 16z"/>
<path d="M6650 552 c-92 -46 -108 -176 -31 -246 11 -10 55 -31 98 -46 43 -15
82 -35 88 -44 15 -24 -6 -50 -43 -54 -43 -4 -69 12 -77 48 -6 29 -8 30 -66 30
l-59 0 0 -50 c0 -35 4 -50 13 -50 7 0 24 -14 36 -31 30 -41 81 -61 153 -60 73
0 127 28 157 81 41 73 19 171 -46 203 -15 8 -58 24 -95 36 -72 24 -93 44 -77
73 23 42 119 8 119 -42 0 -18 7 -20 60 -20 l60 0 0 55 c0 39 -4 55 -13 55 -8
0 -24 12 -38 26 -13 15 -38 33 -56 40 -46 20 -141 18 -183 -4z"/>
<path d="M1261 538 c-4 -13 -35 -104 -67 -202 -43 -130 -64 -180 -76 -184 -14
-3 -18 -15 -18 -48 l0 -44 95 0 95 0 0 45 c0 41 -2 45 -24 45 -23 0 -24 2 -13
35 l10 35 73 0 c66 0 72 -2 78 -23 10 -37 7 -47 -14 -47 -17 0 -20 -7 -20 -45
l0 -45 100 0 100 0 0 45 c0 38 -3 45 -19 45 -17 0 -30 32 -87 205 l-68 205
-68 0 c-62 0 -69 -2 -77 -22z"/>
<path d="M1810 510 c0 -47 2 -50 25 -50 l25 0 0 -155 0 -155 -25 0 c-23 0 -25
-4 -25 -45 l0 -45 110 0 110 0 0 45 c0 41 -2 45 -25 45 -23 0 -25 3 -25 50 l0
50 35 0 c58 0 76 -31 97 -165 3 -18 12 -20 81 -23 l77 -3 0 50 c0 43 -3 50
-22 53 -17 2 -25 14 -34 51 -7 26 -18 55 -25 63 -11 13 -10 19 8 32 47 38 58
122 23 180 -36 58 -83 72 -257 72 l-153 0 0 -50z"/>
<path d="M2510 511 c0 -48 2 -51 25 -51 l25 0 0 -155 0 -155 -25 0 c-23 0 -25
-4 -25 -45 l0 -45 105 0 105 0 0 45 c0 38 -3 45 -20 45 -17 0 -20 7 -20 45 l0
45 58 0 c112 0 182 62 182 161 0 55 -29 103 -80 133 -30 18 -56 21 -182 24
l-148 4 0 -51z"/>
<path d="M3160 505 c0 -54 0 -55 30 -55 l30 0 0 -150 0 -150 -30 0 c-29 0 -30
-2 -30 -45 l0 -45 205 0 205 0 0 90 0 90 -60 0 -60 0 0 -45 0 -45 -60 0 -60 0
0 55 0 55 50 0 50 0 0 50 0 50 -50 0 -50 0 0 45 0 45 60 0 60 0 0 -35 0 -35
60 0 60 0 0 90 0 90 -205 0 -205 0 0 -55z"/>
<path d="M3820 510 c0 -43 3 -50 20 -50 19 0 20 -7 20 -155 l0 -155 -25 0
c-23 0 -25 -4 -25 -45 l0 -45 100 0 100 0 0 45 c0 38 -3 45 -20 45 -19 0 -20
7 -20 100 0 55 2 100 4 100 2 0 45 -65 96 -145 l92 -145 59 0 59 0 0 200 c0
193 1 200 20 200 17 0 20 7 20 50 l0 50 -95 0 -95 0 0 -50 c0 -43 3 -50 20
-50 19 0 20 -7 20 -107 l0 -107 -97 157 -98 156 -77 1 -78 0 0 -50z"/>
<path d="M4540 480 l0 -80 55 0 c54 0 55 0 55 30 0 25 4 30 25 30 l25 0 0
-155 0 -155 -25 0 c-23 0 -25 -4 -25 -45 l0 -45 110 0 110 0 0 45 c0 41 -2 45
-25 45 l-25 0 0 155 0 155 30 0 c27 0 30 -3 30 -30 l0 -30 60 0 60 0 0 80 0
80 -230 0 -230 0 0 -80z"/>
<path d="M5230 505 c0 -52 1 -55 25 -55 l25 0 0 -150 0 -150 -25 0 c-23 0 -25
-4 -25 -45 l0 -45 200 0 200 0 0 90 0 90 -55 0 -55 0 0 -45 0 -45 -60 0 -60 0
0 55 0 55 50 0 50 0 0 50 0 50 -50 0 -50 0 0 45 0 45 60 0 60 0 0 -35 0 -35
55 0 55 0 0 90 0 90 -200 0 -200 0 0 -55z"/>
<path d="M5880 510 c0 -47 2 -50 25 -50 l25 0 0 -155 0 -155 -25 0 c-23 0 -25
-4 -25 -45 l0 -45 110 0 110 0 0 45 c0 41 -2 45 -25 45 -23 0 -25 3 -25 50 l0
50 35 0 c58 0 76 -31 97 -165 3 -18 12 -20 81 -23 l77 -3 0 50 c0 43 -3 50
-22 53 -17 2 -25 14 -34 51 -7 26 -18 55 -25 63 -11 13 -10 19 8 32 47 38 58
122 23 180 -36 58 -83 72 -257 72 l-153 0 0 -50z"/>
</g>
</svg>
